<svg width="13" height="10" viewBox="0 0 13 10" fill="none" xmlns="http://www.w3.org/2000/svg">
<path d="M2.264 9.5V1.82L3.104 2.66H0.584V1.1H4.208V9.5H2.264ZM9.26722 9.644C8.57922 9.644 7.96322 9.476 7.41922 9.14C6.87522 8.796 6.44722 8.3 6.13522 7.652C5.82322 7.004 5.66722 6.22 5.66722 5.3C5.66722 4.38 5.82322 3.596 6.13522 2.948C6.44722 2.3 6.87522 1.808 7.41922 1.472C7.96322 1.128 8.57922 0.956 9.26722 0.956C9.96322 0.956 10.5792 1.128 11.1152 1.472C11.6592 1.808 12.0872 2.3 12.3992 2.948C12.7112 3.596 12.8672 4.38 12.8672 5.3C12.8672 6.22 12.7112 7.004 12.3992 7.652C12.0872 8.3 11.6592 8.796 11.1152 9.14C10.5792 9.476 9.96322 9.644 9.26722 9.644ZM9.26722 8C9.59522 8 9.87922 7.908 10.1192 7.724C10.3672 7.54 10.5592 7.248 10.6952 6.848C10.8392 6.448 10.9112 5.932 10.9112 5.3C10.9112 4.668 10.8392 4.152 10.6952 3.752C10.5592 3.352 10.3672 3.06 10.1192 2.876C9.87922 2.692 9.59522 2.6 9.26722 2.6C8.94722 2.6 8.66322 2.692 8.41522 2.876C8.17522 3.06 7.98322 3.352 7.83922 3.752C7.70322 4.152 7.63522 4.668 7.63522 5.3C7.63522 5.932 7.70322 6.448 7.83922 6.848C7.98322 7.248 8.17522 7.54 8.41522 7.724C8.66322 7.908 8.94722 8 9.26722 8Z" fill="#4F4F4F"/>
</svg>
