<svg width="120" height="26" viewBox="0 0 120 26" fill="none" xmlns="http://www.w3.org/2000/svg">
<path d="M10.5625 7.215V8.58812H25.9858C25.9642 8.14531 25.9179 7.5855 25.7522 7.215" fill="#EC1C24"/>
<path d="M25.025 5.84189H10.5625V7.21501H25.7522C25.5872 6.70273 25.3419 6.23554 25.025 5.84189Z" fill="#E6E7E8"/>
<path d="M21.9375 4.46875H10.5625V5.84188H25.025C24.347 4.99281 23.231 4.46875 21.9375 4.46875Z" fill="#EC1C24"/>
<path d="M25.9858 8.58813H10.5625V9.96126H26V9.04598C26 8.96432 25.9947 8.8847 25.9923 8.80467C25.9907 8.78273 25.9882 8.72626 25.9858 8.58813Z" fill="#E6E7E8"/>
<path d="M10.5625 11.3344H26V9.96124H10.5625V11.3344Z" fill="#EC1C24"/>
<path d="M10.5625 12.7075H26V11.3344H10.5625V12.7075Z" fill="#E6E7E8"/>
<path d="M10.5625 12.7075H26V14.0806H10.5625V12.7075Z" fill="#EC1C24"/>
<path d="M0 14.0806V15.4538H26V14.0806H10.5625H0Z" fill="#E6E7E8"/>
<path d="M0 15.4537H26V16.8269H0V15.4537Z" fill="#EC1C24"/>
<path d="M0.00203125 17.6715C0.00203125 17.6715 -0.001625 18.0042 0.008125 18.2H25.9919C26.0033 17.9993 25.998 17.6715 25.998 17.6715L26 16.8269H0L0.00203125 17.6715Z" fill="#E6E7E8"/>
<path d="M4.06247 22.3438H21.9375C23.2346 22.3438 24.3128 21.8725 25.0493 20.9463H0.946533C1.70703 21.8928 2.80553 22.3438 4.06044 22.3438" fill="#EC1C24"/>
<path d="M0.948601 20.9462H25.0514C25.3727 20.538 25.6127 20.0718 25.7583 19.5731H0.245789C0.394109 20.0704 0.633072 20.5359 0.950632 20.9462" fill="#E6E7E8"/>
<path d="M0.243743 19.5731H25.7562C25.8893 19.1265 25.9684 18.6655 25.9919 18.2H0.00811768C0.0483364 18.6696 0.0857114 19.0243 0.243743 19.5731Z" fill="#EC1C24"/>
<path d="M10.5625 4.46875H4.0625C1.37028 4.46875 0 6.46953 0 8.9375V14.0806H10.5625V4.46875Z" fill="#176496"/>
<path d="M1.13671 6.8965L1.35771 6.72669L1.57831 6.8965L1.49259 6.6235L1.71237 6.45653H1.44099L1.3569 6.18231L1.27321 6.45653H1.00224L1.22284 6.6235L1.13671 6.8965ZM2.59678 6.8965L2.81778 6.72669L3.03837 6.8965L2.95306 6.6235L3.17243 6.45653H2.90146L2.81737 6.18231L2.73368 6.45653H2.4619L2.68249 6.6235L2.59678 6.8965ZM4.20756 6.8965L4.42815 6.72669L4.64915 6.8965L4.56343 6.6235L4.78281 6.45653H4.51346L4.42815 6.18231L4.34406 6.45653H4.07471L4.29287 6.6235L4.20756 6.8965ZM5.80656 6.8965L6.02715 6.72669L6.24815 6.8965L6.16284 6.6235L6.38221 6.45653H6.11003L6.02715 6.18231L5.94346 6.45653H5.67209L5.89228 6.6235L5.80656 6.8965ZM7.41124 6.8965L7.63224 6.72669L7.85284 6.8965L7.76753 6.6235L7.98731 6.45653H7.71553L7.63184 6.18231L7.54815 6.45653H7.27718L7.49656 6.6235L7.41124 6.8965ZM1.91387 7.60947L2.13446 7.44006L2.35506 7.60947L2.27015 7.33687L2.48953 7.16991H2.21815L2.13406 6.89609L2.05159 7.16991H1.7794L1.99918 7.33687L1.91387 7.60947ZM3.37434 7.60947L3.59493 7.44006L3.81553 7.60947L3.73021 7.33687L3.94959 7.16991H3.67659L3.59493 6.89609L3.51084 7.16991H3.23987L3.45965 7.33687L3.37434 7.60947ZM4.98512 7.60947L5.20531 7.44006L5.4259 7.60947L5.34059 7.33687L5.56037 7.16991H5.2894L5.20531 6.89609L5.12121 7.16991H4.84984L5.06962 7.33687L4.98512 7.60947ZM6.58331 7.60947L6.80431 7.44006L7.02531 7.60947L6.93878 7.33687L7.15896 7.16991H6.88799L6.8039 6.89609L6.72062 7.16991H6.44924L6.66903 7.33687L6.58331 7.60947ZM8.19003 7.60947L8.40899 7.44006L8.62959 7.60947L8.54346 7.33687L8.76365 7.16991H8.49309L8.40859 6.89609L8.32531 7.16991H8.05393L8.27371 7.33687L8.19003 7.60947ZM9.09474 6.8965L9.31534 6.72669L9.53634 6.8965L9.45062 6.6235L9.66999 6.45653H9.40065L9.31493 6.18231L9.23124 6.45653H8.95784L9.18006 6.6235L9.09474 6.8965ZM1.11518 12.6019L1.33618 12.4341L1.55678 12.6019L1.47146 12.3313L1.69084 12.1639L1.41987 12.1647L1.33537 11.8909L1.25249 12.1647L0.980713 12.1639L1.20049 12.3313L1.11518 12.6019ZM2.57565 12.6019L2.79624 12.4341L3.01724 12.6019L2.93153 12.3313L3.1509 12.1639L2.88034 12.1647L2.79584 11.8909L2.71256 12.1647L2.44159 12.1639L2.66096 12.3313L2.57565 12.6019ZM4.18643 12.6019L4.40703 12.4341L4.62803 12.6019L4.54231 12.3313L4.76168 12.1639L4.48909 12.1647L4.40662 11.8909L4.32293 12.1647L4.05196 12.1639L4.27174 12.3313L4.18643 12.6019ZM5.78543 12.6019L6.00603 12.4341L6.22662 12.6019L6.14253 12.3313L6.36068 12.1639L6.08931 12.1647L6.00562 11.8909L5.92193 12.1647L5.65096 12.1639L5.87034 12.3313L5.78543 12.6019ZM7.38971 12.6019L7.61071 12.4341L7.83171 12.6019L7.74721 12.3313L7.96537 12.1639L7.6944 12.1647L7.61031 11.8909L7.52703 12.1647L7.25565 12.1639L7.47503 12.3313L7.38971 12.6019ZM9.07321 12.6019L9.29381 12.4341L9.51481 12.6019L9.42909 12.3313L9.64887 12.1639L9.37628 12.1647L9.2934 11.8909L9.20971 12.1647L8.93753 12.1639L9.15853 12.3313L9.07321 12.6019ZM1.13671 8.32325L1.35771 8.15344L1.57831 8.32325L1.49259 8.05025L1.71237 7.88328L1.44099 7.88409L1.3569 7.60947L1.27321 7.88409L1.00224 7.88328L1.22284 8.05025L1.13671 8.32325ZM2.59678 8.32325L2.81778 8.15344L3.03837 8.32325L2.95306 8.05025L3.17243 7.88328L2.90146 7.88409L2.81737 7.60947L2.73368 7.88409L2.4619 7.88328L2.68249 8.05025L2.59678 8.32325ZM4.20756 8.32325L4.42815 8.15344L4.64915 8.32325L4.56343 8.05025L4.78281 7.88328L4.51346 7.88409L4.42815 7.60947L4.34406 7.88409L4.07471 7.88328L4.29287 8.05025L4.20756 8.32325ZM5.80656 8.32325L6.02715 8.15344L6.24815 8.32325L6.16284 8.05025L6.38221 7.88328L6.11003 7.88409L6.02715 7.60947L5.94346 7.88409L5.67209 7.88328L5.89228 8.05025L5.80656 8.32325ZM7.41124 8.32325L7.63224 8.15344L7.85284 8.32325L7.76753 8.05025L7.98731 7.88328L7.71553 7.88409L7.63184 7.60947L7.54815 7.88409L7.27718 7.88328L7.49656 8.05025L7.41124 8.32325ZM1.91387 9.03662L2.13446 8.86722L2.35506 9.03662L2.27015 8.76403L2.48953 8.59625H2.21815L2.13406 8.32325L2.05159 8.59625H1.7794L1.99918 8.76403L1.91387 9.03662ZM3.37434 9.03662L3.59493 8.86722L3.81553 9.03662L3.73021 8.76403L3.94959 8.59625H3.67659L3.59493 8.32325L3.51084 8.59625H3.23987L3.45965 8.76403L3.37434 9.03662ZM4.98512 9.03662L5.20531 8.86722L5.4259 9.03662L5.34059 8.76403L5.56037 8.59625H5.2894L5.20531 8.32325L5.12121 8.59625H4.84984L5.06962 8.76403L4.98512 9.03662ZM6.58331 9.03662L6.80431 8.86722L7.02531 9.03662L6.93878 8.76403L7.15896 8.59625H6.88799L6.8039 8.32325L6.72062 8.59625H6.44924L6.66903 8.76403L6.58331 9.03662ZM8.19003 9.03662L8.40899 8.86722L8.62959 9.03662L8.54346 8.76403L8.76365 8.59625H8.49309L8.40859 8.32325L8.32531 8.59625H8.05393L8.27371 8.76403L8.19003 9.03662ZM9.09474 8.32325L9.31534 8.15344L9.53634 8.32325L9.45062 8.05025L9.66999 7.88328L9.40065 7.88409L9.31493 7.60947L9.23124 7.88409L8.95784 7.88328L9.18006 8.05025L9.09474 8.32325ZM1.11518 9.75L1.33618 9.58059L1.55678 9.75L1.47106 9.47781L1.69084 9.31044L1.41946 9.31125L1.33537 9.03662L1.25249 9.31125L0.980713 9.31044L1.20049 9.47781L1.11518 9.75ZM2.57565 9.75L2.79624 9.58059L3.01724 9.75L2.93153 9.47781L3.1509 9.31044L2.88034 9.31125L2.79584 9.03662L2.71256 9.31125L2.44159 9.31044L2.66056 9.47781L2.57565 9.75ZM4.18643 9.75L4.40703 9.58059L4.62762 9.75L4.54231 9.47781L4.76168 9.31044L4.48909 9.31125L4.40662 9.03662L4.32293 9.31125L4.05196 9.31044L4.27174 9.47781L4.18643 9.75ZM5.78543 9.75L6.00562 9.58059L6.22662 9.75L6.14253 9.47781L6.36068 9.31044L6.08931 9.31125L6.00562 9.03662L5.92193 9.31125L5.65096 9.31044L5.87034 9.47781L5.78543 9.75ZM7.38971 9.75L7.61071 9.58059L7.83131 9.75L7.74721 9.47781L7.96537 9.31044L7.69399 9.31125L7.61031 9.03662L7.52703 9.31125L7.25565 9.31044L7.47503 9.47781L7.38971 9.75ZM1.89234 10.4634L2.11293 10.2944L2.33353 10.4634L2.24862 10.1928L2.46759 10.0246H2.19621L2.11253 9.75L2.02924 10.0246H1.75787L1.97765 10.1928L1.89234 10.4634ZM3.35281 10.4634L3.5734 10.2944L3.79399 10.4634L3.70868 10.1928L3.92806 10.0246H3.65628L3.57299 9.75L3.48931 10.0246H3.21793L3.43812 10.1928L3.35281 10.4634ZM4.96399 10.4634L5.18378 10.2944L5.40478 10.4634L5.31784 10.1928L5.53884 10.0246H5.26787L5.18378 9.75L5.10009 10.0246H4.82871L5.04849 10.1928L4.96399 10.4634ZM6.56096 10.4634L6.78278 10.2944L7.00378 10.4634L6.91846 10.1928L7.13743 10.0246H6.86646L6.78237 9.75L6.69909 10.0246H6.42771L6.64749 10.1928L6.56096 10.4634ZM8.16565 10.4634L8.38746 10.2944L8.60846 10.4634L8.52274 10.1928L8.74293 10.0246H8.47196L8.38746 9.75L8.30378 10.0246H8.0324L8.25218 10.1928L8.16565 10.4634ZM9.07321 9.75L9.29381 9.58059L9.5144 9.75L9.42909 9.47781L9.64887 9.31044L9.37628 9.31125L9.2934 9.03662L9.20971 9.31125L8.93753 9.31044L9.15853 9.47781L9.07321 9.75ZM1.11518 11.1772L1.33618 11.0094L1.55678 11.1772L1.47106 10.9046L1.69084 10.7372L1.41946 10.738L1.33537 10.4634L1.25249 10.738L0.980713 10.7372L1.20049 10.9046L1.11518 11.1772ZM2.57565 11.1772L2.79624 11.0094L3.01724 11.1772L2.93153 10.9046L3.1509 10.7372L2.88034 10.738L2.79584 10.4634L2.71256 10.738L2.44159 10.7372L2.66056 10.9046L2.57565 11.1772ZM4.18643 11.1772L4.40703 11.0094L4.62762 11.1772L4.54231 10.9046L4.76168 10.7372L4.48909 10.738L4.40662 10.4634L4.32293 10.738L4.05196 10.7372L4.27174 10.9046L4.18643 11.1772ZM5.78543 11.1772L6.00562 11.0094L6.22662 11.1772L6.14253 10.9046L6.36068 10.7372L6.08931 10.738L6.00562 10.4634L5.92193 10.738L5.65096 10.7372L5.87034 10.9046L5.78543 11.1772ZM7.38971 11.1772L7.61071 11.0094L7.83131 11.1772L7.74721 10.9046L7.96537 10.7372L7.69399 10.738L7.61031 10.4634L7.52703 10.738L7.25565 10.7372L7.47503 10.9046L7.38971 11.1772ZM1.89234 11.8909L2.11293 11.7211L2.33353 11.8909L2.24862 11.6179L2.46759 11.4522H2.19621L2.11253 11.1772L2.02924 11.4522H1.75787L1.97765 11.6179L1.89234 11.8909ZM3.35281 11.8909L3.5734 11.7211L3.79399 11.8909L3.70868 11.6179L3.92806 11.4522H3.65628L3.57299 11.1772L3.48931 11.4522H3.21793L3.43812 11.6179L3.35281 11.8909ZM4.96399 11.8909L5.18378 11.7211L5.40478 11.8909L5.31784 11.6179L5.53884 11.4522H5.26787L5.18378 11.1772L5.10009 11.4522H4.82871L5.04849 11.6179L4.96399 11.8909ZM6.56096 11.8909L6.78278 11.7211L7.00378 11.8909L6.91846 11.6179L7.13743 11.4522H6.86646L6.78237 11.1772L6.69909 11.4522H6.42771L6.64749 11.6179L6.56096 11.8909ZM8.16565 11.8909L8.38746 11.7211L8.60846 11.8909L8.52274 11.6179L8.74293 11.4522H8.47196L8.38746 11.1772L8.30378 11.4522H8.0324L8.25218 11.6179L8.16565 11.8909ZM9.07321 11.1772L9.29381 11.0094L9.5144 11.1772L9.42909 10.9046L9.64887 10.7372L9.37628 10.738L9.2934 10.4634L9.20971 10.738L8.93753 10.7372L9.15853 10.9046L9.07321 11.1772Z" fill="white"/>
<path d="M49.24 12.034H55.9V13.168H49.24V12.034ZM49.384 17.848H56.962V19H48.052V6.4H56.692V7.552H49.384V17.848ZM64.647 9.46C65.415 9.46 66.087 9.61 66.663 9.91C67.251 10.198 67.707 10.642 68.031 11.242C68.367 11.842 68.535 12.598 68.535 13.51V19H67.257V13.636C67.257 12.64 67.005 11.89 66.501 11.386C66.009 10.87 65.313 10.612 64.413 10.612C63.741 10.612 63.153 10.75 62.649 11.026C62.157 11.29 61.773 11.68 61.497 12.196C61.233 12.7 61.101 13.312 61.101 14.032V19H59.823V9.55H61.047V12.142L60.849 11.656C61.149 10.972 61.629 10.438 62.289 10.054C62.949 9.658 63.735 9.46 64.647 9.46ZM76.0191 22.582C75.1551 22.582 74.3271 22.456 73.5351 22.204C72.7431 21.952 72.1011 21.592 71.6091 21.124L72.2571 20.152C72.7011 20.548 73.2471 20.86 73.8951 21.088C74.5551 21.328 75.2511 21.448 75.9831 21.448C77.1831 21.448 78.0651 21.166 78.6291 20.602C79.1931 20.05 79.4751 19.186 79.4751 18.01V15.652L79.6551 14.032L79.5291 12.412V9.55H80.7531V17.848C80.7531 19.48 80.3511 20.674 79.5471 21.43C78.7551 22.198 77.5791 22.582 76.0191 22.582ZM75.7851 18.64C74.8851 18.64 74.0751 18.448 73.3551 18.064C72.6351 17.668 72.0651 17.122 71.6451 16.426C71.2371 15.73 71.0331 14.932 71.0331 14.032C71.0331 13.132 71.2371 12.34 71.6451 11.656C72.0651 10.96 72.6351 10.42 73.3551 10.036C74.0751 9.652 74.8851 9.46 75.7851 9.46C76.6251 9.46 77.3811 9.634 78.0531 9.982C78.7251 10.33 79.2591 10.846 79.6551 11.53C80.0511 12.214 80.2491 13.048 80.2491 14.032C80.2491 15.016 80.0511 15.85 79.6551 16.534C79.2591 17.218 78.7251 17.74 78.0531 18.1C77.3811 18.46 76.6251 18.64 75.7851 18.64ZM75.9111 17.506C76.6071 17.506 77.2251 17.362 77.7651 17.074C78.3051 16.774 78.7311 16.366 79.0431 15.85C79.3551 15.322 79.5111 14.716 79.5111 14.032C79.5111 13.348 79.3551 12.748 79.0431 12.232C78.7311 11.716 78.3051 11.314 77.7651 11.026C77.2251 10.726 76.6071 10.576 75.9111 10.576C75.2271 10.576 74.6091 10.726 74.0571 11.026C73.5171 11.314 73.0911 11.716 72.7791 12.232C72.4791 12.748 72.3291 13.348 72.3291 14.032C72.3291 14.716 72.4791 15.322 72.7791 15.85C73.0911 16.366 73.5171 16.774 74.0571 17.074C74.6091 17.362 75.2271 17.506 75.9111 17.506ZM84.3093 19V5.644H85.5873V19H84.3093ZM89.1433 19V9.55H90.4213V19H89.1433ZM89.7913 7.462C89.5273 7.462 89.3053 7.372 89.1253 7.192C88.9453 7.012 88.8553 6.796 88.8553 6.544C88.8553 6.292 88.9453 6.082 89.1253 5.914C89.3053 5.734 89.5273 5.644 89.7913 5.644C90.0553 5.644 90.2773 5.728 90.4573 5.896C90.6373 6.064 90.7273 6.274 90.7273 6.526C90.7273 6.79 90.6373 7.012 90.4573 7.192C90.2893 7.372 90.0673 7.462 89.7913 7.462ZM96.5153 19.09C95.7353 19.09 94.9973 18.982 94.3013 18.766C93.6053 18.538 93.0593 18.256 92.6633 17.92L93.2393 16.912C93.6233 17.2 94.1153 17.452 94.7153 17.668C95.3153 17.872 95.9453 17.974 96.6053 17.974C97.5053 17.974 98.1533 17.836 98.5493 17.56C98.9453 17.272 99.1433 16.894 99.1433 16.426C99.1433 16.078 99.0293 15.808 98.8013 15.616C98.5853 15.412 98.2973 15.262 97.9373 15.166C97.5773 15.058 97.1753 14.968 96.7313 14.896C96.2873 14.824 95.8433 14.74 95.3993 14.644C94.9673 14.548 94.5713 14.41 94.2113 14.23C93.8513 14.038 93.5573 13.78 93.3293 13.456C93.1133 13.132 93.0053 12.7 93.0053 12.16C93.0053 11.644 93.1493 11.182 93.4373 10.774C93.7253 10.366 94.1453 10.048 94.6973 9.82C95.2613 9.58 95.9453 9.46 96.7493 9.46C97.3613 9.46 97.9733 9.544 98.5853 9.712C99.1973 9.868 99.7013 10.078 100.097 10.342L99.5393 11.368C99.1193 11.08 98.6693 10.876 98.1893 10.756C97.7093 10.624 97.2293 10.558 96.7493 10.558C95.8973 10.558 95.2673 10.708 94.8593 11.008C94.4633 11.296 94.2653 11.668 94.2653 12.124C94.2653 12.484 94.3733 12.766 94.5893 12.97C94.8173 13.174 95.1113 13.336 95.4713 13.456C95.8433 13.564 96.2453 13.654 96.6773 13.726C97.1213 13.798 97.5593 13.888 97.9913 13.996C98.4353 14.092 98.8373 14.23 99.1973 14.41C99.5693 14.578 99.8633 14.824 100.079 15.148C100.307 15.46 100.421 15.874 100.421 16.39C100.421 16.942 100.265 17.422 99.9533 17.83C99.6533 18.226 99.2093 18.538 98.6213 18.766C98.0453 18.982 97.3433 19.09 96.5153 19.09ZM107.59 9.46C108.358 9.46 109.03 9.61 109.606 9.91C110.194 10.198 110.65 10.642 110.974 11.242C111.31 11.842 111.478 12.598 111.478 13.51V19H110.2V13.636C110.2 12.64 109.948 11.89 109.444 11.386C108.952 10.87 108.256 10.612 107.356 10.612C106.684 10.612 106.096 10.75 105.592 11.026C105.1 11.29 104.716 11.68 104.44 12.196C104.176 12.7 104.044 13.312 104.044 14.032V19H102.766V5.644H104.044V12.142L103.792 11.656C104.092 10.972 104.572 10.438 105.232 10.054C105.892 9.658 106.678 9.46 107.59 9.46Z" fill="#4F4F4F"/>
</svg>
